<?xml version="1.0" encoding="utf-8"?>
<!-- Generator: Adobe Illustrator 17.0.0, SVG Export Plug-In . SVG Version: 6.00 Build 0)  -->
<!DOCTYPE svg PUBLIC "-//W3C//DTD SVG 1.1//EN" "http://www.w3.org/Graphics/SVG/1.1/DTD/svg11.dtd">
<svg version="1.1" id="Layer_1" xmlns="http://www.w3.org/2000/svg" xmlns:xlink="http://www.w3.org/1999/xlink" x="0px" y="0px"
	 width="14.86px" height="21px" viewBox="0 0 14.86 21" enable-background="new 0 0 14.86 21" xml:space="preserve">
<path fill="#F58655" d="M7.43,20.919c-0.362,0-0.68-0.264-0.837-0.422c-7.039-8.091-6.66-12.435-6.554-13.078
	C0.067,3.367,3.372,0.081,7.43,0.081s7.362,3.287,7.392,7.337c0.106,0.644,0.486,4.985-6.525,13.049
	C8.11,20.655,7.791,20.919,7.43,20.919z M7.43,1.247c-3.433,0-6.226,2.793-6.226,6.226L1.189,7.605
	C1.182,7.637,0.456,11.66,7.43,19.686c0.006-0.005,0.011-0.011,0.016-0.015c6.957-8.004,6.231-12.033,6.223-12.073l-0.013-0.125
	C13.656,4.04,10.863,1.247,7.43,1.247z M7.43,12.079c-2.54,0-4.606-2.066-4.606-4.606S4.89,2.867,7.43,2.867
	s4.606,2.066,4.606,4.606S9.97,12.079,7.43,12.079z M7.43,4.033c-1.897,0-3.44,1.543-3.44,3.44s1.543,3.441,3.44,3.441
	s3.441-1.544,3.441-3.441S9.327,4.033,7.43,4.033z"/>
</svg>
