<?xml version="1.0" encoding="utf-8"?>
<!-- Generator: Adobe Illustrator 17.0.0, SVG Export Plug-In . SVG Version: 6.00 Build 0)  -->
<!DOCTYPE svg PUBLIC "-//W3C//DTD SVG 1.1//EN" "http://www.w3.org/Graphics/SVG/1.1/DTD/svg11.dtd">
<svg version="1.1" id="Layer_1" xmlns="http://www.w3.org/2000/svg" xmlns:xlink="http://www.w3.org/1999/xlink" x="0px" y="0px"
	 width="136.179px" height="37.939px" viewBox="0 0 136.179 37.939" enable-background="new 0 0 136.179 37.939"
	 xml:space="preserve">
<g>
	<path fill="#BABABA" d="M46.515,7.706c-10.941,0-5.753,18.823-5.753,18.823h4.968c-0.115,0-0.386-1.937-0.408-2.072
		c-0.36-2.203-0.579-4.439-0.631-6.672c-0.125-5.36,0.988-5.615,1.416-5.572c1.368,0.137,1.614,3.951,1.582,6.762
		c-0.126,11.067-5.184,11.477-5.229,11.418l2.107,4.512c5.681-1.191,8.75-7.642,9.216-13.962
		C54.275,14.251,52.442,7.706,46.515,7.706z"/>
	<path fill="#BABABA" d="M82.276,7.706c-10.94,0-5.752,18.823-5.752,18.823s4.966,0,4.967,0c-0.115,0-0.386-1.937-0.408-2.072
		c-0.36-2.203-0.578-4.439-0.631-6.672c-0.126-5.36,0.988-5.615,1.415-5.572c1.368,0.137,1.615,3.951,1.583,6.762
		c-0.126,11.067-5.184,11.477-5.23,11.418l2.106,4.512c5.681-1.191,8.751-7.642,9.217-13.962
		C90.037,14.251,88.204,7.706,82.276,7.706z"/>
	<path fill="#BABABA" d="M8.781,0.438c0,0,6.508,26.355-4.867,26.986c-1.059,0.059-3.17-0.426-3.903-0.498L0,22.479
		c0.402,0.11,2.083,0.51,2.633,0.497C7.839,22.86,2.074,0.459,2.074,0.459L8.781,0.438z"/>
	<path fill="#BABABA" d="M16.951,8.387c0,0-0.959,14.065,1.472,14.065c2.18,0,0.534-14.08,0.534-14.08h5.124
		c0,0,2.978,18.913-5.805,18.913c-9.076,0-6.691-18.897-6.691-18.897H16.951z"/>
	<path fill="#BABABA" d="M33.094,26.511c0,0,0.838-13.972-1.593-13.972c-2.18,0-0.624,13.99-0.624,13.99h-5.124
		c0,0-2.887-18.823,5.895-18.823c9.075,0,6.613,18.805,6.613,18.805H33.094z"/>
	<path fill="#BABABA" d="M110.897,18.099c0,0,4.211-10.464-5.44-10.464c-0.028,0-0.055,0.002-0.085,0.002
		c-10.957,0.116-6.462,13.425-6.462,13.425s1.92,6.089,8.574,6.246l1.761-4.946c-0.713-0.084-6.686-0.587-4.661-8.61
		c0.16-0.596,0.459-0.977,0.963-0.977c2.586,0-0.356,5.324-0.356,5.324H110.897z"/>
	<path fill="#BABABA" d="M98.832,0h-6.809c0,0-6.198,25.748,5.938,27.32l1.297-4.547C93.685,20.906,98.832,0,98.832,0z"/>
	<g>
		<path fill="#BABABA" d="M58.431,1.543c-1.277-1.204-3.288-1.146-4.491,0.131c-1.206,1.276-1.146,3.288,0.131,4.492
			c1.276,1.204,3.287,1.145,4.492-0.131C59.766,4.758,59.709,2.747,58.431,1.543z M57.532,5.42c-0.433,0.46-1.158,0.481-1.617,0.047
			c-0.46-0.433-0.48-1.157-0.047-1.617c0.433-0.46,1.157-0.481,1.617-0.048C57.944,4.236,57.965,4.96,57.532,5.42z"/>
		<path fill="#BABABA" d="M74.876,1.551c-1.252-1.231-3.263-1.214-4.494,0.038c-1.231,1.251-1.214,3.263,0.038,4.494
			c1.251,1.23,3.263,1.214,4.494-0.038C76.144,4.793,76.127,2.781,74.876,1.551z M73.045,5.416
			c-0.443,0.451-1.168,0.457-1.619,0.014c-0.45-0.443-0.456-1.168-0.013-1.618c0.443-0.45,1.168-0.456,1.617-0.013
			C73.481,4.241,73.487,4.965,73.045,5.416z"/>
		<ellipse fill="#BABABA" cx="63.835" cy="12.042" rx="1.288" ry="0.672"/>
		<ellipse fill="#BABABA" cx="64.006" cy="16.961" rx="0.429" ry="0.695"/>
		<path fill="#BABABA" d="M64.277,0.68c-14.987,0-7.881,25.786-7.881,25.786s6.804,0,6.805,0c-0.157,0-0.529-2.654-0.559-2.839
			c-0.493-3.018-0.793-6.081-0.865-9.14c-0.171-7.343,1.353-7.692,1.939-7.633c1.874,0.188,2.211,5.413,2.168,9.263
			c-0.172,15.16-7.102,15.722-7.164,15.641l2.886,6.181c7.782-1.632,11.988-10.469,12.626-19.126
			C74.908,9.646,72.397,0.68,64.277,0.68z M60.066,10.558c-0.478,0-0.865-0.387-0.865-0.865c0-0.478,0.387-0.865,0.865-0.865
			c0.477,0,0.865,0.387,0.865,0.865C60.93,10.171,60.543,10.558,60.066,10.558z M68.369,10.558c-0.478,0-0.865-0.387-0.865-0.865
			c0-0.478,0.387-0.865,0.865-0.865c0.478,0,0.865,0.387,0.865,0.865C69.234,10.171,68.847,10.558,68.369,10.558z"/>
	</g>
	<g>
		<path fill="#BABABA" d="M112.6,7.609h7.828c0,0,1.87,10.709,15.751,15.463l-1.806,4.326C134.373,27.398,118.02,26.006,112.6,7.609
			z"/>
		<path fill="#BABABA" d="M129.224,0.396h6.846c0,0-3.503,23.199-23.469,27.002v-4.183C112.6,23.215,125.373,20.79,129.224,0.396z"
			/>
	</g>
</g>
</svg>
