<?xml version="1.0" encoding="utf-8"?>
<!-- Generator: Adobe Illustrator 17.0.0, SVG Export Plug-In . SVG Version: 6.00 Build 0)  -->
<!DOCTYPE svg PUBLIC "-//W3C//DTD SVG 1.1//EN" "http://www.w3.org/Graphics/SVG/1.1/DTD/svg11.dtd">
<svg version="1.1" id="Layer_1" xmlns="http://www.w3.org/2000/svg" xmlns:xlink="http://www.w3.org/1999/xlink" x="0px" y="0px"
	 width="128.763px" height="35.873px" viewBox="0 0 128.763 35.873" enable-background="new 0 0 128.763 35.873"
	 xml:space="preserve">
<g>
	<path fill="#FFFFFF" d="M43.981,7.287c-10.345,0-5.44,17.798-5.44,17.798h4.697c-0.108,0-0.365-1.832-0.386-1.959
		c-0.34-2.083-0.548-4.197-0.597-6.309c-0.118-5.069,0.934-5.309,1.339-5.268c1.293,0.13,1.526,3.736,1.496,6.393
		c-0.119,10.464-4.902,10.852-4.945,10.796l1.992,4.266c5.371-1.126,8.274-7.226,8.714-13.201
		C51.319,13.475,49.586,7.287,43.981,7.287z"/>
	<path fill="#FFFFFF" d="M77.794,7.287c-10.344,0-5.439,17.798-5.439,17.798h4.697c-0.109,0-0.365-1.832-0.386-1.959
		c-0.34-2.083-0.547-4.197-0.596-6.309c-0.119-5.069,0.934-5.309,1.338-5.268c1.294,0.13,1.527,3.736,1.496,6.393
		c-0.119,10.464-4.902,10.852-4.945,10.796l1.992,4.266c5.372-1.126,8.274-7.226,8.715-13.201
		C85.133,13.475,83.4,7.287,77.794,7.287z"/>
	<path fill="#FFFFFF" d="M8.302,0.415c0,0,6.154,24.92-4.602,25.517c-1.001,0.055-2.997-0.402-3.691-0.471L0,21.255
		c0.38,0.104,1.97,0.482,2.489,0.47c4.923-0.11-0.529-21.291-0.529-21.291L8.302,0.415z"/>
	<path fill="#FFFFFF" d="M16.027,7.93c0,0-0.907,13.299,1.392,13.299c2.061,0,0.505-13.314,0.505-13.314h4.845
		c0,0,2.815,17.883-5.489,17.883c-8.581,0-6.327-17.868-6.327-17.868H16.027z"/>
	<path fill="#FFFFFF" d="M31.291,25.067c0,0,0.793-13.211-1.507-13.211c-2.061,0-0.59,13.228-0.59,13.228H24.35
		c0,0-2.73-17.798,5.574-17.798c8.581,0,6.253,17.781,6.253,17.781H31.291z"/>
	<path fill="#FFFFFF" d="M104.857,17.113c0,0,3.982-9.894-5.143-9.894c-0.027,0-0.052,0.002-0.08,0.002
		c-10.36,0.109-6.111,12.694-6.111,12.694s1.815,5.757,8.107,5.906l1.665-4.677c-0.674-0.079-6.322-0.555-4.407-8.141
		c0.151-0.564,0.434-0.924,0.91-0.924c2.445,0-0.337,5.034-0.337,5.034H104.857z"/>
	<path fill="#FFFFFF" d="M93.449,0h-6.438c0,0-5.86,24.346,5.615,25.832l1.227-4.3C88.582,19.768,93.449,0,93.449,0z"/>
	<g>
		<path fill="#FFFFFF" d="M55.249,1.459c-1.208-1.139-3.109-1.083-4.247,0.124c-1.14,1.207-1.083,3.109,0.124,4.247
			c1.207,1.139,3.108,1.083,4.247-0.124C56.511,4.498,56.457,2.597,55.249,1.459z M54.398,5.125
			c-0.41,0.435-1.095,0.455-1.529,0.045c-0.435-0.41-0.454-1.094-0.045-1.529c0.41-0.434,1.094-0.454,1.529-0.045
			C54.788,4.005,54.808,4.69,54.398,5.125z"/>
		<path fill="#FFFFFF" d="M70.798,1.466c-1.183-1.164-3.085-1.148-4.249,0.036c-1.164,1.183-1.147,3.085,0.036,4.249
			c1.183,1.163,3.086,1.148,4.249-0.036C71.996,4.532,71.98,2.629,70.798,1.466z M69.066,5.121c-0.419,0.426-1.104,0.432-1.53,0.013
			c-0.425-0.419-0.431-1.104-0.012-1.53c0.419-0.426,1.104-0.432,1.529-0.012C69.479,4.01,69.484,4.695,69.066,5.121z"/>
		<ellipse fill="#FFFFFF" cx="60.358" cy="11.386" rx="1.218" ry="0.635"/>
		<ellipse fill="#FFFFFF" cx="60.519" cy="16.037" rx="0.405" ry="0.657"/>
		<path fill="#FFFFFF" d="M60.776,0.643c-14.171,0-7.451,24.382-7.451,24.382s6.434,0,6.434,0c-0.149,0-0.5-2.509-0.528-2.684
			c-0.466-2.854-0.75-5.75-0.818-8.643c-0.162-6.943,1.28-7.273,1.834-7.217c1.772,0.177,2.091,5.118,2.05,8.758
			c-0.163,14.335-6.715,14.866-6.774,14.789l2.729,5.844c7.358-1.543,11.335-9.898,11.938-18.084
			C70.829,9.121,68.454,0.643,60.776,0.643z M56.794,9.983c-0.452,0-0.818-0.366-0.818-0.818c0-0.452,0.366-0.818,0.818-0.818
			c0.451,0,0.817,0.366,0.817,0.818C57.612,9.617,57.246,9.983,56.794,9.983z M64.646,9.983c-0.452,0-0.818-0.366-0.818-0.818
			c0-0.452,0.366-0.818,0.818-0.818c0.452,0,0.818,0.366,0.818,0.818C65.463,9.617,65.097,9.983,64.646,9.983z"/>
	</g>
	<g>
		<path fill="#FFFFFF" d="M106.468,7.195h7.402c0,0,1.768,10.126,14.893,14.621l-1.708,4.09
			C127.055,25.906,111.592,24.59,106.468,7.195z"/>
		<path fill="#FFFFFF" d="M122.186,0.375h6.473c0,0-3.312,21.935-22.191,25.531V21.95C106.468,21.95,118.545,19.658,122.186,0.375z"
			/>
	</g>
</g>
</svg>
